<svg xmlns="http://www.w3.org/2000/svg" width="173" height="199" overflow="hidden"><defs><clipPath id="a"><path d="M553 261h173v199H553z"/></clipPath><clipPath id="b"><path d="M554 262h172v197H554z"/></clipPath><clipPath id="c"><path d="M554 262h172v197H554z"/></clipPath></defs><g clip-path="url(#a)" transform="translate(-553 -261)"><g clip-path="url(#b)"><g clip-path="url(#c)"><path fill="#FFF" d="M722.768 379.462a12.767 12.767 0 0 0-6.373-9.921l-16.014-9.197 16.014-9.2a12.773 12.773 0 0 0 6.373-9.923l2.726-29.98-27.461-12.65a12.954 12.954 0 0 0-11.83.534l-16.011 9.197v-18.393c0-4.146-2.04-8.06-5.462-10.469l-24.735-17.331-24.736 17.334a12.838 12.838 0 0 0-5.445 10.466v18.396l-16.02-9.203a12.985 12.985 0 0 0-11.828-.53l-27.459 12.649 2.731 29.98a12.793 12.793 0 0 0 6.367 9.924l16.019 9.195-16.019 9.201a12.775 12.775 0 0 0-6.367 9.921l-2.73 29.987 27.462 12.643a12.87 12.87 0 0 0 5.388 1.175c2.227 0 4.45-.57 6.435-1.708l16.02-9.198v18.404c0 4.155 2.037 8.06 5.448 10.445l24.734 17.34 24.732-17.34a12.748 12.748 0 0 0 5.465-10.445v-18.401l16.015 9.198a12.946 12.946 0 0 0 6.43 1.705c1.84 0 3.683-.387 5.396-1.175l27.46-12.643Z"/><path fill="#3669B1" d="M638.758 358.203v-28.988l-25.232 14.497ZM612.288 430.766c0 3.354 1.643 6.503 4.397 8.426l22.071 15.48v-58.936l-26.468 15.201ZM638.756 266.007l-22.068 15.466a10.37 10.37 0 0 0-4.4 8.457v51.65l26.468-15.207ZM641.231 329.215v28.988l25.232-14.49Z"/><path fill="#82AAD9" d="m641.233 454.672 22.071-15.48a10.281 10.281 0 0 0 4.397-8.426v-19.829l-26.468-15.201ZM663.301 281.473l-22.068-15.466v60.365L667.7 341.58v-51.65a10.37 10.37 0 0 0-4.4-8.456"/><path fill="#0098D6" d="M583.005 300.825 558.5 312.113l51.313 29.469v-30.413l-17.257-9.914a10.47 10.47 0 0 0-9.551-.43M722.727 406.444l-2.438-26.761a10.32 10.32 0 0 0-5.14-8.01l-44.971-25.83v30.413ZM667.701 374.835v-28.992l-25.232 14.493ZM641.233 391.469l25.232-14.5-25.232-14.499Z"/><path fill="#69C3EF" d="M559.7 341a10.334 10.334 0 0 0 5.142 8.015l17.253 9.906 26.48-15.21-51.313-29.464ZM668.94 378.389h-.003l-26.468 15.212 44.961 25.824a10.462 10.462 0 0 0 9.554.432l24.503-11.28Z"/><path fill="#00BDD0" d="M612.288 345.842v28.992l25.23-14.499ZM638.756 391.469V362.47l-25.232 14.499ZM611.049 378.389l-52.548 30.188 24.504 11.28a10.462 10.462 0 0 0 9.554-.432l44.96-25.824-26.467-15.212ZM671.413 343.711l26.48 15.21 17.254-9.907a10.33 10.33 0 0 0 5.141-8.015l2.44-26.753Z"/><path fill="#88D3E3" d="m559.7 379.684-2.438 26.761 17.454-10.029 35.095-20.158v-30.413l-44.972 25.828a10.32 10.32 0 0 0-5.139 8.011M696.984 300.825a10.47 10.47 0 0 0-9.551.43l-17.257 9.914v30.413l51.314-29.469Z"/></g></g></g></svg>